<?xml version="1.0" encoding="UTF-8" standalone="no" ?>
<!DOCTYPE svg PUBLIC "-//W3C//DTD SVG 1.1//EN" "http://www.w3.org/Graphics/SVG/1.1/DTD/svg11.dtd">
<svg xmlns="http://www.w3.org/2000/svg" xmlns:xlink="http://www.w3.org/1999/xlink" version="1.1" width="250" height="100" viewBox="0 0 250 100" xml:space="preserve">
<desc>Created with Fabric.js 4.2.0</desc>
<defs>
</defs>
<g transform="matrix(1 0 0 1 125 50)" id="d0950fdc-c646-47eb-b7f5-9eba20db39e7"  >
<rect style="stroke: none; stroke-width: 1; stroke-dasharray: none; stroke-linecap: butt; stroke-dashoffset: 0; stroke-linejoin: miter; stroke-miterlimit: 4; fill: rgb(0,0,0); fill-opacity: 0; fill-rule: nonzero; opacity: 1;" vector-effect="non-scaling-stroke"  x="-125" y="-50" rx="0" ry="0" width="250" height="100" />
</g>
<g transform="matrix(Infinity NaN NaN Infinity 0 0)" id="5588bc82-f4da-4361-aa69-97c21c129676"  >
</g>
<g transform="matrix(2.41 0 0 2.92 125.5 50.31)"  >
<g style="" vector-effect="non-scaling-stroke"   >
		<g transform="matrix(1.33 0 0 1.33 12.14 -0.24)"  >
<path style="stroke: none; stroke-width: 1; stroke-dasharray: none; stroke-linecap: butt; stroke-dashoffset: 0; stroke-linejoin: miter; stroke-miterlimit: 4; fill: rgb(104,30,175); fill-rule: nonzero; opacity: 1;" vector-effect="non-scaling-stroke"  transform=" translate(-1.48, 1.74)" d="M 2.40625 -1.5 L 1.03125 -1.5 L 1.03125 -0.578125 L 2.640625 -0.578125 L 2.640625 0 L 0.3125 0 L 0.3125 -3.484375 L 2.640625 -3.484375 L 2.640625 -2.890625 L 1.03125 -2.890625 L 1.03125 -2.0625 L 2.40625 -2.0625 Z M 2.40625 -1.5" stroke-linecap="round" />
</g>
		<g transform="matrix(1.33 0 0 1.33 17.52 -0.24)"  >
<path style="stroke: none; stroke-width: 1; stroke-dasharray: none; stroke-linecap: butt; stroke-dashoffset: 0; stroke-linejoin: miter; stroke-miterlimit: 4; fill: rgb(104,30,175); fill-rule: nonzero; opacity: 1;" vector-effect="non-scaling-stroke"  transform=" translate(-2.14, 1.74)" d="M 3.015625 -1 L 3.484375 -3.484375 L 4.203125 -3.484375 L 3.421875 0 L 2.703125 0 L 2.140625 -2.328125 L 1.578125 0 L 0.859375 0 L 0.078125 -3.484375 L 0.796875 -3.484375 L 1.265625 -1 L 1.84375 -3.484375 L 2.453125 -3.484375 Z M 3.015625 -1" stroke-linecap="round" />
</g>
		<g transform="matrix(1.33 0 0 1.33 23.16 -0.24)"  >
<path style="stroke: none; stroke-width: 1; stroke-dasharray: none; stroke-linecap: butt; stroke-dashoffset: 0; stroke-linejoin: miter; stroke-miterlimit: 4; fill: rgb(104,30,175); fill-rule: nonzero; opacity: 1;" vector-effect="non-scaling-stroke"  transform=" translate(-1.48, 1.74)" d="M 2.40625 -1.5 L 1.03125 -1.5 L 1.03125 -0.578125 L 2.640625 -0.578125 L 2.640625 0 L 0.3125 0 L 0.3125 -3.484375 L 2.640625 -3.484375 L 2.640625 -2.890625 L 1.03125 -2.890625 L 1.03125 -2.0625 L 2.40625 -2.0625 Z M 2.40625 -1.5" stroke-linecap="round" />
</g>
		<g transform="matrix(1.33 0 0 1.33 27.98 -0.24)"  >
<path style="stroke: none; stroke-width: 1; stroke-dasharray: none; stroke-linecap: butt; stroke-dashoffset: 0; stroke-linejoin: miter; stroke-miterlimit: 4; fill: rgb(104,30,175); fill-rule: nonzero; opacity: 1;" vector-effect="non-scaling-stroke"  transform=" translate(-1.73, 1.74)" d="M 3.140625 0 L 2.421875 0 L 1.03125 -2.28125 L 1.03125 0 L 0.3125 0 L 0.3125 -3.484375 L 1.03125 -3.484375 L 2.421875 -1.1875 L 2.421875 -3.484375 L 3.140625 -3.484375 Z M 3.140625 0" stroke-linecap="round" />
</g>
		<g transform="matrix(1.33 0 0 1.33 33.12 -0.24)"  >
<path style="stroke: none; stroke-width: 1; stroke-dasharray: none; stroke-linecap: butt; stroke-dashoffset: 0; stroke-linejoin: miter; stroke-miterlimit: 4; fill: rgb(104,30,175); fill-rule: nonzero; opacity: 1;" vector-effect="non-scaling-stroke"  transform=" translate(-1.51, 1.74)" d="M 2.921875 -2.890625 L 1.859375 -2.890625 L 1.859375 0 L 1.140625 0 L 1.140625 -2.890625 L 0.09375 -2.890625 L 0.09375 -3.484375 L 2.921875 -3.484375 Z M 2.921875 -2.890625" stroke-linecap="round" />
</g>
		<g transform="matrix(1.33 0 0 1.33 36.92 -0.24)"  >
<path style="stroke: none; stroke-width: 1; stroke-dasharray: none; stroke-linecap: butt; stroke-dashoffset: 0; stroke-linejoin: miter; stroke-miterlimit: 4; fill: rgb(104,30,175); fill-rule: nonzero; opacity: 1;" vector-effect="non-scaling-stroke"  transform=" translate(-0.72, 1.74)" d="M 1.078125 0 L 0.359375 0 L 0.359375 -3.484375 L 1.078125 -3.484375 Z M 1.078125 0" stroke-linecap="round" />
</g>
		<g transform="matrix(1.33 0 0 1.33 40.82 -0.24)"  >
<path style="stroke: none; stroke-width: 1; stroke-dasharray: none; stroke-linecap: butt; stroke-dashoffset: 0; stroke-linejoin: miter; stroke-miterlimit: 4; fill: rgb(104,30,175); fill-rule: nonzero; opacity: 1;" vector-effect="non-scaling-stroke"  transform=" translate(-1.6, 1.74)" d="M 1.59375 -0.859375 L 2.390625 -3.484375 L 3.1875 -3.484375 L 1.96875 0 L 1.21875 0 L 0.015625 -3.484375 L 0.8125 -3.484375 Z M 1.59375 -0.859375" stroke-linecap="round" />
</g>
		<g transform="matrix(1.33 0 0 1.33 45.74 -0.24)"  >
<path style="stroke: none; stroke-width: 1; stroke-dasharray: none; stroke-linecap: butt; stroke-dashoffset: 0; stroke-linejoin: miter; stroke-miterlimit: 4; fill: rgb(104,30,175); fill-rule: nonzero; opacity: 1;" vector-effect="non-scaling-stroke"  transform=" translate(-1.48, 1.74)" d="M 2.40625 -1.5 L 1.03125 -1.5 L 1.03125 -0.578125 L 2.640625 -0.578125 L 2.640625 0 L 0.3125 0 L 0.3125 -3.484375 L 2.640625 -3.484375 L 2.640625 -2.890625 L 1.03125 -2.890625 L 1.03125 -2.0625 L 2.40625 -2.0625 Z M 2.40625 -1.5" stroke-linecap="round" />
</g>
		<g transform="matrix(1.33 0 0 1.33 -10.29 0)"  >
<path style="stroke: none; stroke-width: 1; stroke-dasharray: none; stroke-linecap: butt; stroke-dashoffset: 0; stroke-linejoin: miter; stroke-miterlimit: 4; fill: rgb(104,30,175); fill-rule: nonzero; opacity: 1;" vector-effect="non-scaling-stroke"  transform=" translate(-45.1, -37.67)" d="M 45.101562 30.59375 C 44.636719 30.59375 44.179688 30.636719 43.722656 30.726562 C 43.265625 30.820312 42.824219 30.953125 42.394531 31.132812 C 41.964844 31.308594 41.558594 31.527344 41.171875 31.785156 C 40.785156 32.042969 40.429688 32.335938 40.101562 32.664062 C 39.773438 32.992188 39.480469 33.351562 39.222656 33.734375 C 38.960938 34.121094 38.746094 34.53125 38.566406 34.960938 C 38.390625 35.386719 38.253906 35.832031 38.164062 36.285156 C 38.074219 36.742188 38.027344 37.203125 38.027344 37.664062 C 38.027344 38.128906 38.074219 38.589844 38.164062 39.046875 C 38.253906 39.5 38.390625 39.945312 38.566406 40.371094 C 38.746094 40.800781 38.960938 41.210938 39.222656 41.597656 C 39.480469 41.980469 39.773438 42.339844 40.101562 42.667969 C 40.429688 42.996094 40.785156 43.289062 41.171875 43.546875 C 41.558594 43.804688 41.964844 44.023438 42.394531 44.199219 C 42.824219 44.378906 43.265625 44.511719 43.722656 44.601562 C 44.179688 44.695312 44.636719 44.738281 45.101562 44.738281 C 45.566406 44.738281 46.027344 44.695312 46.480469 44.601562 C 46.9375 44.511719 47.378906 44.378906 47.808594 44.199219 C 48.238281 44.023438 48.644531 43.804688 49.03125 43.546875 C 49.417969 43.289062 49.777344 42.996094 50.105469 42.667969 C 50.433594 42.339844 50.726562 41.980469 50.984375 41.597656 C 51.242188 41.210938 51.460938 40.800781 51.636719 40.371094 C 51.816406 39.945312 51.949219 39.5 52.039062 39.046875 C 52.128906 38.589844 52.175781 38.128906 52.175781 37.664062 C 52.175781 37.203125 52.128906 36.742188 52.039062 36.285156 C 51.949219 35.832031 51.816406 35.386719 51.636719 34.960938 C 51.460938 34.53125 51.242188 34.121094 50.984375 33.734375 C 50.726562 33.351562 50.433594 32.992188 50.105469 32.664062 C 49.777344 32.335938 49.417969 32.042969 49.03125 31.785156 C 48.644531 31.527344 48.238281 31.308594 47.808594 31.132812 C 47.378906 30.953125 46.9375 30.820312 46.480469 30.726562 C 46.027344 30.636719 45.566406 30.59375 45.101562 30.59375 Z M 45.101562 30.59375" stroke-linecap="round" />
</g>
		<g transform="matrix(1.33 0 0 1.33 4.9 0)"  >
<path style="stroke: none; stroke-width: 1; stroke-dasharray: none; stroke-linecap: butt; stroke-dashoffset: 0; stroke-linejoin: miter; stroke-miterlimit: 4; fill: rgb(170,216,255); fill-rule: nonzero; opacity: 1;" vector-effect="non-scaling-stroke"  transform=" translate(-56.49, -37.67)" d="M 56.492188 34.875 C 56.121094 34.875 55.765625 34.945312 55.425781 35.089844 C 55.082031 35.230469 54.78125 35.433594 54.519531 35.695312 C 54.257812 35.953125 54.058594 36.257812 53.914062 36.597656 C 53.773438 36.941406 53.703125 37.296875 53.703125 37.664062 C 53.703125 38.035156 53.773438 38.390625 53.914062 38.734375 C 54.058594 39.074219 54.257812 39.375 54.519531 39.636719 C 54.78125 39.898438 55.082031 40.101562 55.425781 40.242188 C 55.765625 40.382812 56.121094 40.457031 56.492188 40.457031 C 56.863281 40.457031 57.21875 40.382812 57.558594 40.242188 C 57.902344 40.101562 58.203125 39.898438 58.464844 39.636719 C 58.726562 39.375 58.929688 39.074219 59.070312 38.734375 C 59.210938 38.390625 59.28125 38.035156 59.28125 37.664062 C 59.28125 37.296875 59.210938 36.941406 59.070312 36.597656 C 58.929688 36.257812 58.726562 35.953125 58.464844 35.695312 C 58.203125 35.433594 57.902344 35.230469 57.558594 35.089844 C 57.21875 34.945312 56.863281 34.875 56.492188 34.875 Z M 56.492188 34.875" stroke-linecap="round" />
</g>
		<g transform="matrix(1.33 0 0 1.33 -34.28 0)"  >
<path style="stroke: none; stroke-width: 1; stroke-dasharray: none; stroke-linecap: butt; stroke-dashoffset: 0; stroke-linejoin: miter; stroke-miterlimit: 4; fill: rgb(249,63,201); fill-rule: nonzero; opacity: 1;" vector-effect="non-scaling-stroke"  transform=" translate(-27.11, -37.67)" d="M 27.113281 27.902344 C 26.472656 27.902344 25.835938 27.964844 25.207031 28.089844 C 24.578125 28.214844 23.96875 28.402344 23.375 28.644531 C 22.785156 28.890625 22.222656 29.191406 21.6875 29.546875 C 21.15625 29.902344 20.664062 30.308594 20.210938 30.761719 C 19.753906 31.214844 19.351562 31.707031 18.996094 32.242188 C 18.640625 32.773438 18.339844 33.335938 18.09375 33.929688 C 17.847656 34.523438 17.664062 35.132812 17.535156 35.761719 C 17.410156 36.390625 17.347656 37.023438 17.347656 37.664062 C 17.347656 38.308594 17.410156 38.941406 17.535156 39.570312 C 17.664062 40.199219 17.847656 40.808594 18.09375 41.402344 C 18.339844 41.996094 18.640625 42.558594 18.996094 43.089844 C 19.351562 43.625 19.753906 44.117188 20.210938 44.570312 C 20.664062 45.023438 21.15625 45.425781 21.6875 45.785156 C 22.222656 46.140625 22.785156 46.441406 23.375 46.6875 C 23.96875 46.929688 24.578125 47.117188 25.207031 47.242188 C 25.835938 47.367188 26.472656 47.429688 27.113281 47.429688 C 27.753906 47.429688 28.390625 47.367188 29.015625 47.242188 C 29.644531 47.117188 30.257812 46.929688 30.847656 46.6875 C 31.441406 46.441406 32.003906 46.140625 32.535156 45.785156 C 33.070312 45.425781 33.5625 45.023438 34.015625 44.570312 C 34.46875 44.117188 34.875 43.625 35.230469 43.089844 C 35.585938 42.558594 35.886719 41.996094 36.132812 41.402344 C 36.378906 40.808594 36.5625 40.199219 36.6875 39.570312 C 36.8125 38.941406 36.875 38.308594 36.875 37.664062 C 36.875 37.023438 36.8125 36.390625 36.6875 35.761719 C 36.5625 35.132812 36.378906 34.523438 36.132812 33.929688 C 35.886719 33.335938 35.585938 32.773438 35.230469 32.242188 C 34.875 31.707031 34.46875 31.214844 34.015625 30.761719 C 33.5625 30.308594 33.070312 29.902344 32.535156 29.546875 C 32.003906 29.191406 31.441406 28.890625 30.847656 28.644531 C 30.257812 28.402344 29.644531 28.214844 29.015625 28.089844 C 28.390625 27.964844 27.753906 27.902344 27.113281 27.902344 Z M 27.113281 27.902344" stroke-linecap="round" />
</g>
</g>
</g>
</svg>